<?xml version="1.0" standalone="no"?>
<!DOCTYPE svg PUBLIC "-//W3C//DTD SVG 20010904//EN"
 "http://www.w3.org/TR/2001/REC-SVG-20010904/DTD/svg10.dtd">
<svg version="1.0" xmlns="http://www.w3.org/2000/svg"
 width="471.000000pt" height="530.000000pt" viewBox="0 0 471.000000 530.000000"
 preserveAspectRatio="xMidYMid meet">

<g transform="translate(0.000000,530.000000) scale(0.100000,-0.100000)"
fill="#ffffff" stroke="none">
<path d="M1715 5255 c-5 -2 -29 -9 -52 -15 -54 -14 -103 -54 -103 -85 0 -13
22 -51 51 -87 28 -35 63 -85 77 -113 25 -45 27 -60 27 -161 l0 -110 -58 -118
c-31 -65 -55 -122 -52 -126 14 -23 78 22 185 129 162 164 288 346 332 484 22
66 22 69 4 101 -36 68 -147 106 -301 105 -55 0 -104 -2 -110 -4z"/>
<path d="M1160 5214 c-110 -21 -220 -83 -220 -123 0 -23 41 -59 114 -102 76
-43 231 -197 274 -271 18 -31 50 -98 71 -149 21 -51 44 -95 50 -97 30 -10 77
71 107 183 25 98 26 271 0 345 -34 100 -107 175 -195 200 -42 13 -165 21 -201
14z"/>
<path d="M902 4938 c-21 -26 -23 -86 -8 -177 39 -227 141 -421 221 -421 44 0
79 30 112 98 59 120 24 256 -99 387 -91 98 -195 150 -226 113z"/>
<path d="M2255 4877 c-185 -89 -376 -303 -404 -454 -15 -75 2 -133 56 -193 97
-108 217 -98 318 26 57 71 125 210 161 329 21 71 27 112 28 193 1 92 -1 105
-18 118 -30 22 -65 17 -141 -19z"/>
<path d="M2427 4393 c-16 -19 -98 -194 -173 -372 -54 -127 -159 -329 -220
-423 -111 -169 -282 -304 -464 -365 -42 -14 -85 -18 -180 -18 -118 0 -131 2
-240 38 -137 46 -159 43 -190 -25 -24 -52 -25 -95 -5 -173 37 -139 128 -218
279 -240 68 -11 167 23 247 83 124 94 215 197 364 408 64 91 185 198 273 241
l76 38 171 0 c201 0 212 4 253 93 25 53 27 66 25 187 -1 105 -6 149 -27 228
-35 130 -83 242 -122 283 -36 39 -45 41 -67 17z"/>
<path d="M1584 4084 c-81 -109 -134 -202 -127 -220 8 -21 59 -36 101 -29 88
15 131 70 140 182 5 67 -12 148 -33 156 -6 3 -42 -36 -81 -89z"/>
<path d="M1206 4107 c-36 -36 -51 -101 -36 -152 22 -74 96 -124 115 -77 14 36
16 148 3 197 -16 60 -43 71 -82 32z"/>
<path d="M2443 3435 c-112 -31 -258 -121 -349 -217 -27 -29 -79 -102 -115
-161 -58 -99 -204 -292 -282 -375 -60 -63 -251 -186 -426 -275 -212 -108 -290
-159 -369 -241 -129 -134 -182 -257 -190 -437 -5 -125 4 -159 39 -159 40 0 77
31 264 220 196 197 292 284 430 387 104 78 490 334 675 448 193 118 268 174
334 247 100 110 186 315 186 444 0 78 -11 101 -55 120 -42 17 -74 17 -142 -1z"/>
<path d="M2765 2751 c-16 -10 -52 -42 -80 -71 -27 -28 -76 -70 -108 -92 -66
-45 -454 -238 -567 -282 -112 -44 -389 -180 -493 -242 -215 -130 -377 -256
-377 -294 0 -45 57 -37 424 62 526 141 647 159 1081 161 351 2 506 -13 710
-68 140 -38 174 -42 193 -23 31 31 5 98 -105 263 -113 170 -222 302 -361 436
-164 159 -243 196 -317 150z"/>
<path d="M4193 2385 c-93 -17 -189 -62 -246 -114 -49 -45 -81 -102 -127 -228
-52 -138 -122 -207 -256 -252 -116 -38 -220 -44 -654 -35 -606 13 -889 5
-1186 -36 -409 -56 -739 -157 -920 -280 -116 -80 -192 -194 -235 -356 -42
-153 -26 -522 36 -816 27 -125 76 -198 133 -198 47 0 110 40 181 115 119 125
206 255 359 531 141 256 229 381 342 488 158 148 372 260 625 325 206 53 307
65 581 67 317 2 416 8 604 40 422 71 692 189 894 390 76 75 133 148 152 192
20 48 18 105 -4 125 -50 46 -167 63 -279 42z"/>
<path d="M3370 1520 c-113 -10 -289 -23 -391 -29 -209 -12 -262 -24 -267 -59
-5 -33 7 -44 147 -136 310 -203 457 -373 814 -946 54 -85 105 -164 115 -176
21 -25 54 -44 77 -44 32 0 74 60 100 142 71 226 72 444 4 797 -52 266 -97 377
-174 430 -69 47 -104 48 -425 21z"/>
</g>
</svg>
