<?xml version="1.0" standalone="no"?>
<!DOCTYPE svg PUBLIC "-//W3C//DTD SVG 20010904//EN"
 "http://www.w3.org/TR/2001/REC-SVG-20010904/DTD/svg10.dtd">
<svg version="1.0" xmlns="http://www.w3.org/2000/svg"
 width="597.000000pt" height="418.000000pt" viewBox="0 0 597.000000 418.000000"
 preserveAspectRatio="xMidYMid meet">

<g transform="translate(0.000000,418.000000) scale(0.100000,-0.100000)"
fill="#000000" stroke="none">
<path d="M1138 2008 c-30 -51 -121 -204 -201 -340 -81 -137 -147 -252 -147
-258 0 -26 28 -5 52 40 l28 50 165 0 165 0 22 -45 22 -45 169 0 169 0 -20 33
c-11 17 -95 169 -187 337 -92 168 -171 309 -175 313 -4 5 -32 -34 -62 -85z
m-24 -347 c37 -68 65 -125 64 -126 -5 -4 -159 -9 -226 -7 l-64 2 20 33 c11 17
45 76 77 130 31 54 58 97 60 95 2 -2 33 -59 69 -127z"/>
<path d="M1831 2080 c-106 -23 -198 -95 -246 -196 -25 -50 -29 -71 -30 -144 0
-77 3 -92 33 -152 120 -244 450 -265 607 -39 20 29 25 45 18 52 -8 8 -20 -3
-41 -34 -60 -86 -124 -128 -224 -147 -95 -18 -88 -43 -88 322 l0 321 63 -5
c82 -7 145 -36 202 -92 25 -25 50 -46 55 -46 46 0 -70 111 -146 139 -66 25
-144 33 -203 21z"/>
<path d="M3223 2080 c-93 -19 -189 -92 -235 -177 -95 -175 -22 -396 160 -481
49 -23 70 -27 147 -27 79 0 97 4 149 29 108 53 183 157 194 268 l5 48 -163 0
c-125 0 -161 -3 -158 -12 3 -10 45 -14 150 -16 l146 -3 -10 -41 c-29 -129
-126 -222 -259 -247 -108 -19 -100 -46 -97 318 l3 316 65 -1 c79 -1 133 -26
195 -90 24 -24 48 -44 54 -44 45 0 -51 99 -132 135 -59 27 -153 38 -214 25z"/>
<path d="M2799 2032 c-98 -64 -213 -132 -223 -132 -4 0 -6 37 -5 83 l4 82
-145 3 -145 3 -2 -331 -1 -330 148 0 147 0 -5 224 -5 224 49 31 49 31 127
-260 c85 -175 132 -260 142 -260 23 0 20 25 -11 73 -61 96 -233 451 -223 461
5 5 53 35 107 65 53 31 96 61 95 66 -2 23 -32 13 -103 -33z"/>
<path d="M4345 2068 c-2 -7 -6 -119 -8 -248 -3 -196 -6 -242 -21 -275 -35 -80
-79 -110 -187 -125 -119 -17 -109 -48 -109 326 l0 324 -145 0 -145 0 0 -246
c0 -277 5 -309 60 -364 51 -51 108 -65 260 -65 136 0 181 10 231 52 49 42 69
93 79 206 13 140 13 414 0 422 -6 3 -12 0 -15 -7z"/>
<path d="M185 2059 c-4 -6 -5 -13 -2 -16 3 -3 64 -4 136 -4 l130 2 -44 -99
c-24 -55 -91 -197 -149 -316 l-104 -216 304 0 c264 0 304 2 304 15 0 13 -22
15 -140 15 -77 0 -140 2 -140 4 0 10 103 234 191 415 54 112 99 206 99 207 0
2 -130 4 -289 4 -195 0 -292 -4 -296 -11z"/>
<path d="M4470 1741 l0 -331 193 0 c218 0 268 9 339 63 165 125 175 366 22
506 -80 74 -114 82 -351 88 l-203 6 0 -332z m463 270 c57 -28 113 -83 145
-146 20 -39 26 -65 26 -120 1 -87 -14 -131 -66 -196 -49 -62 -135 -106 -218
-111 l-55 -3 -3 304 -2 304 64 -5 c36 -3 85 -15 109 -27z"/>
<path d="M5225 2059 c-13 -19 4 -22 131 -20 l126 2 -8 -23 c-12 -39 -117 -264
-203 -435 -44 -90 -81 -165 -81 -168 0 -3 138 -5 306 -5 240 0 305 3 302 13
-3 9 -43 13 -141 15 -75 1 -137 6 -137 11 0 11 100 229 203 444 l86 177 -289
0 c-194 0 -291 -4 -295 -11z"/>
</g>
</svg>
